#!OML:ASF H:\Terrain\Patient Classification 1\Walking\liu\liu.ASF
:FULLY-SPECIFIED
:DEGREES
194
root 16.264940 33.273399 -20.509600 14.043860 8.259140 -5.680240
lowerback -8.480720 3.346680 2.046580
upperback -3.017140 4.315000 6.691680
thorax 1.469014 2.173260 5.935260
lowerneck -27.072599 -13.695480 -31.904600
upperneck 27.111401 -17.703381 32.434799
head 15.763340 -7.513500 14.169860
rclavicle 0.000000 0.000000
rhumerus -74.206001 17.883221 -156.648193
rradius 96.985802
rwrist -53.480400
rhand -72.762398 -48.337002
rfingers 14.250040
rthumb -18.955280 -107.870796
lclavicle 0.000000 0.000000
lhumerus -98.525002 -19.927000 191.811600
lradius 61.650398
lwrist 28.212400
lhand -24.994200 -49.814800
lfingers 14.250040
lthumb 27.155800 9.259620
rfemur -20.006599 11.461140 57.769798
rtibia 48.497200
rfoot -42.112202 2.361840
rtoes -20.372000
lfemur -78.252197 11.899040 -39.617802
ltibia 89.874603
lfoot -29.607800 19.720840
ltoes -25.188200
195
root 16.277081 33.248798 -20.251801 13.987800 8.235180 -5.706580
lowerback -8.841620 2.930520 1.578198
upperback -1.711284 3.722880 6.737620
thorax 3.022340 1.862322 6.256020
lowerneck -31.931200 -13.940860 -29.944401
upperneck 28.368401 -17.720840 31.246599
head 16.897301 -7.293960 13.366200
rclavicle -0.000000 -0.000000
rhumerus -70.892998 17.949141 -156.570999
rradius 97.823196
rwrist -51.307598
rhand -69.838402 -53.625599
rfingers 14.250040
rthumb -16.133579 -113.277603
lclavicle -0.000000 -0.000000
lhumerus -96.023804 -20.018400 191.432007
lradius 60.518600
lwrist 27.440599
lhand -25.953800 -49.746799
lfingers 14.250040
lthumb 26.231001 9.388420
rfemur -18.259821 11.092760 57.970402
rtibia 47.115601
rfoot -41.462002 2.799000
rtoes -19.490200
lfemur -78.986801 10.937760 -39.587601
ltibia 86.100197
lfoot -29.397200 18.980080
ltoes -23.648600
196
root 16.283640 33.246601 -19.992201 13.880280 7.980160 -6.375940
lowerback -8.472920 3.003700 2.023280
upperback -2.198760 3.825340 7.008820
thorax 2.315340 1.921098 6.269720
lowerneck -30.461399 -13.772400 -30.011999
upperneck 27.778601 -17.544979 30.945000
head 16.394421 -7.307380 13.298000
rclavicle -0.000000 0.000000
rhumerus -71.328201 18.017361 -156.846207
rradius 98.195999
rwrist -51.219799
rhand -69.146797 -55.344200
rfingers 14.250040
rthumb -15.466060 -115.021400
lclavicle -0.000000 0.000000
lhumerus -97.473801 -20.175800 192.205002
lradius 60.125000
lwrist 25.944000
lhand -27.113800 -49.319199
lfingers 14.250040
lthumb 25.112600 9.886100
rfemur -16.574841 10.885560 58.866402
rtibia 45.831200
rfoot -40.845402 3.036560
rtoes -17.905821
lfemur -79.636803 10.300660 -38.787399
ltibia 82.299797
lfoot -29.128401 18.691919
ltoes -23.770201
197
root 16.294661 33.228001 -19.736160 13.831360 7.628440 -7.185120
lowerback -9.003100 3.135180 2.581320
upperback -0.626236 3.893640 7.206120
thorax 4.238520 1.942122 6.216960
lowerneck -35.884201 -14.477460 -28.700800
upperneck 28.955799 -18.038639 29.853399
head 17.717760 -7.326100 12.563400
rclavicle 0.000000 0.000000
rhumerus -68.567398 20.766399 -158.899200
rradius 102.370796
rwrist -61.765598
rhand -79.601402 -70.626999
rfingers 14.250040
rthumb -25.551399 -129.805206
lclavicle 0.000000 0.000000
lhumerus -94.453598 -20.636200 191.914795
lradius 59.404800
lwrist 25.220800
lhand -27.471201 -48.972401
lfingers 14.250040
lthumb 24.768000 10.253920
rfemur -14.922900 11.014720 59.872200
rtibia 44.317200
rfoot -40.478199 3.209340
rtoes -16.743940
lfemur -80.275002 9.875500 -37.786598
ltibia 78.536797
lfoot -28.995001 18.169821
ltoes -23.277000
198
root 16.317341 33.218601 -19.461281 13.728160 7.183720 -6.929080
lowerback -8.786020 3.204700 2.410800
upperback -1.765408 4.048260 7.064280
thorax 2.936960 2.028680 6.140760
lowerneck -31.841600 -13.754120 -29.229401
upperneck 28.580601 -17.445959 30.121201
head 16.808840 -7.224600 12.883200
rclavicle -0.000000 -0.000000
rhumerus -70.624802 19.149780 -157.992401
rradius 100.736198
rwrist -54.040001
rhand -71.342598 -62.506199
rfingers 14.250040
rthumb -17.585159 -122.099800
lclavicle -0.000000 -0.000000
lhumerus -97.114998 -19.631540 191.809998
lradius 59.125801
lwrist 23.745600
lhand -26.303801 -48.468800
lfingers 14.250040
lthumb 25.893600 10.687980
rfemur -12.643100 10.779660 59.555599
rtibia 42.335602
rfoot -40.229000 4.537600
rtoes -14.983160
lfemur -80.516800 9.351760 -37.939800
ltibia 74.806602
lfoot -29.194000 17.469320
ltoes -23.660200
199
root 16.332720 33.230999 -19.183661 13.745460 6.780180 -6.786400
lowerback -9.569360 2.878680 2.115100
upperback -0.350124 3.556280 6.732460
thorax 4.855720 1.766286 5.992120
lowerneck -36.562801 -13.693040 -27.194201
upperneck 29.678801 -17.267300 29.485399
head 17.868040 -6.878300 12.305980
rclavicle -0.000000 0.000000
rhumerus -67.105400 18.851320 -158.459198
rradius 99.807999
rwrist -51.252201
rhand -67.696198 -60.062401
rfingers 14.250040
rthumb -14.065940 -119.788597
lclavicle -0.000000 0.000000
lhumerus -94.380798 -18.864861 190.042007
lradius 58.325600
lwrist 22.832800
lhand -25.284800 -47.945202
lfingers 14.250040
lthumb 26.875799 11.147960
rfemur -10.426800 10.926300 59.376801
rtibia 40.369400
rfoot -40.063000 5.399840
rtoes -12.340620
lfemur -80.932198 8.796880 -37.934399
ltibia 71.048599
lfoot -29.540400 17.205080
ltoes -26.375000
200
root 16.351561 33.239799 -18.913980 13.839700 6.360740 -7.257100
lowerback -9.713500 3.359380 2.877180
upperback -1.088982 4.176720 6.787620
thorax 4.173420 2.088520 5.649200
lowerneck -33.844002 -13.806360 -28.808399
upperneck 29.320200 -17.485140 30.342400
head 17.415359 -7.110940 12.880520
rclavicle -0.000000 -0.000000
rhumerus -69.318802 18.531380 -158.437393
rradius 100.805397
rwrist -51.377602
rhand -67.733200 -60.938202
rfingers 14.250040
rthumb -14.101580 -120.663399
lclavicle -0.000000 -0.000000
lhumerus -96.332802 -20.432800 191.662796
lradius 57.764599
lwrist 23.493999
lhand -25.390600 -47.799999
lfingers 14.250040
lthumb 26.773800 11.299800
rfemur -8.655640 10.851020 59.883202
rtibia 38.367001
rfoot -39.576401 5.743160
rtoes -13.477500
lfemur -81.481003 8.230420 -37.163799
ltibia 67.196602
lfoot -29.677200 17.126520
ltoes -28.150400
201
root 16.378981 33.226799 -18.629141 13.805620 5.961400 -7.364840
lowerback -9.921200 3.475420 3.017800
upperback -1.429026 4.328220 6.820360
thorax 3.937660 2.166780 5.613240
lowerneck -32.136600 -13.715180 -29.235600
upperneck 28.843399 -17.408880 30.264999
head 16.951160 -7.181400 12.944800
rclavicle 0.000000 0.000000
rhumerus -70.568001 18.976400 -158.881805
rradius 101.696800
rwrist -51.827801
rhand -68.030403 -61.331200
rfingers 14.250040
rthumb -14.388480 -121.046799
lclavicle 0.000000 0.000000
lhumerus -97.782600 -21.144199 192.772995
lradius 57.441200
lwrist 23.789600
lhand -25.988001 -48.169800
lfingers 14.250040
lthumb 26.198000 10.967360
rfemur -6.523860 10.258360 59.939400
rtibia 36.082001
rfoot -38.797600 6.363200
rtoes -16.539440
lfemur -81.723198 6.999160 -36.453800
ltibia 63.605000
lfoot -29.635201 17.224720
ltoes -27.345400
